HIERARCHY
ROOT Hips
{
	OFFSET -3.958830 18.904000 13.208200
	CHANNELS 6 Xposition Yposition Zposition Zrotation Yrotation Xrotation 
	JOINT LHipJoint
	{
		OFFSET 0.000000 0.000000 0.000000
		CHANNELS 3 Zrotation Yrotation Xrotation
		JOINT LeftUpLeg
		{
			OFFSET 1.800000 -1.400000 0.085000
			CHANNELS 3 Zrotation Yrotation Xrotation
			JOINT LeftLeg
			{
				OFFSET 2.215000 -6.000000 0.000000
				CHANNELS 3 Zrotation Yrotation Xrotation
				JOINT LeftFoot
				{
					OFFSET 2.500000 -6.900000 0.000000
					CHANNELS 3 Zrotation Yrotation Xrotation
					JOINT LeftToeBase
					{
						OFFSET 0.200000 -0.500000 1.950000
						CHANNELS 3 Zrotation Yrotation Xrotation
						End Site
						{
							OFFSET 0.000000 0.000000 0.000000
						}
					}
				}
			}
		}
	}
	JOINT RHipJoint
	{
		OFFSET 0.000000 0.000000 0.000000
		CHANNELS 3 Zrotation Yrotation Xrotation
		JOINT RightUpLeg
		{
			OFFSET -1.800000 -1.400000 0.085000
			CHANNELS 3 Zrotation Yrotation Xrotation
			JOINT RightLeg
			{
				OFFSET -2.215000 -6.000000 0.000000
				CHANNELS 3 Zrotation Yrotation Xrotation
				JOINT RightFoot
				{
					OFFSET -2.500000 -6.900000 0.000000
					CHANNELS 3 Zrotation Yrotation Xrotation
					JOINT RightToeBase
					{
						OFFSET -0.200000 -0.500000 1.950000
						CHANNELS 3 Zrotation Yrotation Xrotation
						End Site
						{
							OFFSET 0.000000 0.000000 0.000000
						}
					}
				}
			}
		}
	}
	JOINT LowerBack
	{
		OFFSET 0.000000 0.000000 0.000000
		CHANNELS 3 Zrotation Yrotation Xrotation
		JOINT Spine
		{
			OFFSET -0.087000 1.940000 -0.288900
			CHANNELS 3 Zrotation Yrotation Xrotation
			JOINT Spine1
			{
				OFFSET 0.000000 1.950000 0.060000
				CHANNELS 3 Zrotation Yrotation Xrotation
				JOINT Neck
				{
					OFFSET 0.000000 0.000000 0.000000
					CHANNELS 3 Zrotation Yrotation Xrotation
					JOINT Neck1
					{
						OFFSET 0.000000 1.600000 0.340000
						CHANNELS 3 Zrotation Yrotation Xrotation
						JOINT Head
						{
							OFFSET 0.000000 1.667000 -0.240000
							CHANNELS 3 Zrotation Yrotation Xrotation
							End Site
							{
								OFFSET 0.000000 0.000000 0.000000
							}
						}
					}
				}
				JOINT LeftShoulder
				{
					OFFSET 0.000000 0.000000 0.000000
					CHANNELS 3 Zrotation Yrotation Xrotation
					JOINT LeftArm
					{
						OFFSET 2.700000 1.550000 -0.730000
						CHANNELS 3 Zrotation Yrotation Xrotation
						JOINT LeftForeArm
						{
							OFFSET 5.450000 0.000000 0.000000
							CHANNELS 3 Zrotation Yrotation Xrotation
							JOINT LeftHand
							{
								OFFSET 3.450000 0.000000 0.000000
								CHANNELS 3 Zrotation Yrotation Xrotation
								JOINT LeftHandIndex1
								{
									OFFSET 0.750000 0.000000 0.000000
									CHANNELS 3 Zrotation Yrotation Xrotation
									End Site
									{
										OFFSET 0.000000 0.000000 0.000000
									}
								}
							}
						}
					}
				}
				JOINT RightShoulder
				{
					OFFSET 0.000000 0.000000 0.000000
					CHANNELS 3 Zrotation Yrotation Xrotation
					JOINT RightArm
					{
						OFFSET -2.700000 1.550000 -0.730000
						CHANNELS 3 Zrotation Yrotation Xrotation
						JOINT RightForeArm
						{
							OFFSET -5.450000 0.000000 0.000000
							CHANNELS 3 Zrotation Yrotation Xrotation
							JOINT RightHand
							{
								OFFSET -3.450000 0.000000 0.000000
								CHANNELS 3 Zrotation Yrotation Xrotation
								JOINT RightHandIndex1
								{
									OFFSET -0.750000 0.000000 0.000000
									CHANNELS 3 Zrotation Yrotation Xrotation
									End Site
									{
										OFFSET 0.000000 0.000000 0.000000
									}
								}
							}
						}
					}
				}
			}
		}
	}
}
MOTION
Frames: 7
Frame Time: 0.016667
-2.684470 16.317150 -6.235860 -4.921761 -18.108340 -7.913433 -15.993819 10.034987 6.207736 29.469816 -4.083426 -33.864257 -58.061549 40.879303 40.083132 2.312304 14.396019 0.033970 0.305840 0.206390 -0.024070 18.194685 -6.096015 4.393898 -34.380536 5.842437 -37.327508 42.848324 -29.450014 41.338755 -2.473367 -10.959197 0.428696 -0.115030 0.413470 0.795050 -2.756662 -4.503599 -10.334088 10.184490 -5.162871 54.921429 -2.306808 -0.415269 0.058508 4.332994 -9.332248 -11.367022 -18.972001 8.796723 31.265934 -2.575780 2.307260 -37.615320 -19.799392 -9.586013 3.343871 -30.373872 8.026523 -16.388892 72.758426 -60.548717 -44.522437 -3.160778 1.883426 0.994630 -0.122300 0.684580 0.431660 11.420806 19.582467 8.167463 32.921927 1.515886 -19.760036 -4.304526 71.856578 -5.295621 1.772170 -1.191247 0.012390 0.377330 0.126920 0.230400 
-2.706470 16.258930 -6.232710 -5.019248 -18.696077 -8.174440 -16.032663 10.081788 6.200311 29.681545 -3.945965 -33.695890 -57.013954 41.298544 41.095860 2.359587 14.406775 0.006227 0.333890 0.271760 -0.010510 18.159305 -5.986069 4.467907 -34.715376 6.203207 -37.622584 43.946091 -29.894543 41.496245 -2.524798 -11.037303 0.417089 -0.097990 0.355170 0.770360 -2.655752 -4.697608 -10.408756 9.973043 -4.673725 54.421822 -1.451137 -0.145579 1.083596 4.259297 -9.179602 -12.232460 -19.544440 8.700815 34.089240 -2.063180 1.976600 -36.867450 -20.908278 -12.536655 4.341549 -29.235448 8.838273 -16.913330 66.483680 -57.297686 -38.104031 -3.165970 2.177524 0.974100 -0.155430 0.715960 0.427600 12.837357 22.796064 8.912464 31.200696 1.792509 -20.237135 -12.881204 65.898537 -9.023252 1.757582 -1.069106 0.053140 0.357370 0.093180 0.241810 
-2.710260 16.242440 -6.237160 -4.862863 -19.209227 -8.234969 -16.080409 10.148671 6.209967 29.374833 -4.184779 -34.080702 -54.381097 41.792789 43.573774 2.426344 14.576322 -0.076870 0.387380 0.350240 0.016990 18.114494 -5.886459 4.498244 -34.587103 6.578140 -38.179379 43.390616 -29.967535 42.471132 -2.569826 -11.124766 0.384285 -0.084130 0.284830 0.789530 -2.522381 -4.946458 -10.469103 9.322649 -3.875433 54.040690 -0.305370 0.239732 1.845620 4.161857 -8.912139 -13.068586 -19.846530 8.683257 36.250555 -1.976250 1.780880 -36.629300 -21.280020 -14.909155 5.198429 -28.769957 8.604792 -16.894510 59.545493 -54.295522 -31.993006 -3.154729 2.453503 0.961660 -0.188870 0.764100 0.429340 13.608036 25.224571 9.506871 30.056361 2.011769 -20.475465 -17.550419 62.000366 -10.544915 1.762757 -1.047444 0.121260 0.301130 0.055980 0.254450 
-2.704210 16.258500 -6.240820 -4.697842 -19.324781 -8.309330 -16.098164 10.196226 6.245266 28.823540 -4.753987 -34.777310 -51.190651 42.000824 46.537942 2.450649 14.883933 -0.178845 0.391840 0.345180 0.029740 18.089017 -5.886620 4.459249 -33.834796 6.946514 -38.437174 41.437290 -29.748356 44.096238 -2.579927 -11.202257 0.353448 -0.089120 0.266430 0.795100 -2.449217 -5.063037 -10.495299 8.945933 -3.427918 53.477798 0.376577 0.474123 2.692386 4.088118 -8.598838 -14.188518 -20.037832 8.878621 38.136485 -2.052290 1.678620 -35.941280 -20.650413 -17.252053 6.180471 -28.463848 8.031078 -16.169655 52.533756 -48.491512 -25.056485 -3.202458 2.663921 0.983010 -0.199500 0.779390 0.417520 13.366336 27.383971 10.204408 30.531498 2.101580 -21.006945 -20.688368 58.993321 -11.519889 1.743767 -1.011523 0.125260 0.298400 0.064700 0.243050 
-2.688780 16.319770 -6.248150 -4.519233 -18.939301 -8.704884 -16.069945 10.276828 6.249225 27.796724 -5.732315 -35.088446 -47.884551 41.385989 49.178905 2.428641 15.162850 -0.275826 0.392170 0.320220 0.067490 18.083560 -6.047555 4.334691 -32.454891 7.088462 -37.873617 38.710234 -28.869993 45.370269 -2.541708 -11.124936 0.353720 -0.091280 0.241050 0.786720 -2.447926 -5.022588 -10.452199 8.761839 -3.342719 53.178251 0.378221 0.581240 3.521270 4.069335 -8.056148 -15.002113 -19.606368 8.746637 39.715754 -2.600840 1.674320 -36.051770 -19.272732 -19.057264 6.902121 -27.751624 6.645167 -15.091189 45.972561 -44.026359 -19.892640 -3.226962 2.753088 1.028150 -0.216330 0.792790 0.393520 12.134676 28.628499 10.639220 32.768820 2.217896 -22.053237 -21.912827 58.469036 -12.392997 1.709753 -0.969599 0.100240 0.313340 0.075930 0.207700 
-2.662620 16.424580 -6.249020 -4.240040 -18.395603 -9.159878 -16.028391 10.442409 6.220920 26.529407 -6.634927 -34.879812 -45.126351 40.183102 50.813294 2.423380 15.282636 -0.317164 0.390400 0.302820 0.080430 18.072225 -6.307017 4.135105 -30.780644 7.092783 -36.636263 35.394887 -27.301107 46.124304 -2.450137 -10.877517 0.408822 -0.105400 0.233300 0.787510 -2.441039 -4.986909 -10.358534 8.259907 -3.204501 52.738463 0.594525 0.570129 4.384400 3.937272 -7.698595 -16.112270 -19.652554 9.054198 41.420767 -2.398180 1.757170 -35.065860 -17.631695 -20.929290 7.925586 -28.087833 6.183175 -14.514972 40.213201 -41.260739 -16.474643 -3.218274 2.826605 1.043180 -0.223470 0.801370 0.388930 10.935765 30.080961 11.214536 34.747186 1.965980 -23.210729 -21.739643 58.680580 -12.863706 1.690475 -0.968227 0.100260 0.313640 0.077510 0.199400 
-2.620720 16.578160 -6.252250 -3.881079 -17.702008 -9.641155 -15.978753 10.704455 6.144978 24.835732 -7.500955 -34.201738 -42.392062 38.311897 51.739784 2.378788 15.236950 -0.329058 0.390030 0.305020 0.077570 18.052961 -6.647765 3.875492 -28.799099 7.010952 -35.180110 31.186479 -25.079029 46.693991 -2.308993 -10.453307 0.503106 -0.110510 0.222620 0.788390 -2.419647 -4.985159 -10.206908 7.761016 -2.945605 52.482454 0.989316 0.610989 5.161099 3.775964 -7.600946 -16.994887 -20.239440 9.196470 42.714398 -1.772060 1.491490 -34.721950 -16.117803 -22.379566 8.656632 -28.953890 5.043284 -14.095056 35.759373 -39.626323 -14.391255 -3.192969 2.872357 1.052280 -0.237270 0.815660 0.383800 9.913568 31.316367 11.728881 36.055847 1.584714 -24.158886 -19.686925 59.287110 -12.450980 1.682952 -0.988983 0.109580 0.313410 0.082550 0.203100 
